<?xml version="1.0" encoding="UTF-8"?>
<!-- 
    Source:
    https://github.com/FortAwesome/Font-Awesome/issues/6799#issuecomment-241002076
-->
<svg xmlns="http://www.w3.org/2000/svg" xmlns:xlink="http://www.w3.org/1999/xlink" width="24pt" height="24pt" viewBox="0 0 24 24" version="1.1">
<g id="surface1">
<path style=" stroke:none;fill-rule:nonzero;fill:rgb(100%,100%,100%);fill-opacity:1;" d="M 12 8.417969 C 13.976562 8.417969 15.582031 10.023438 15.582031 12 C 15.582031 13.976562 13.976562 15.582031 12 15.582031 C 10.023438 15.582031 8.417969 13.976562 8.417969 12 C 8.417969 10.023438 10.023438 8.417969 12 8.417969 Z M 12 9.613281 C 10.679688 9.613281 9.613281 10.679688 9.613281 12 C 9.613281 13.320312 10.679688 14.386719 12 14.386719 C 13.320312 14.386719 14.386719 13.320312 14.386719 12 C 14.386719 10.679688 13.320312 9.613281 12 9.613281 Z M 18.894531 5.105469 C 20.722656 6.933594 21.75 9.414062 21.75 12 C 21.75 14.585938 20.722656 17.066406 18.894531 18.894531 C 17.066406 20.722656 14.585938 21.75 12 21.75 C 9.414062 21.75 6.933594 20.722656 5.105469 18.894531 C 3.277344 17.066406 2.25 14.585938 2.25 12 C 2.25 9.414062 3.277344 6.933594 5.105469 5.105469 C 6.933594 3.277344 9.414062 2.25 12 2.25 C 14.585938 2.25 17.066406 3.277344 18.894531 5.105469 Z M 7.78125 12 C 7.78125 12 3.246094 12 3.246094 12 C 3.246094 14.320312 4.167969 16.550781 5.808594 18.191406 C 7.449219 19.832031 9.679688 20.753906 12 20.753906 C 14.320312 20.753906 16.550781 19.832031 18.191406 18.191406 C 19.832031 16.550781 20.753906 14.320312 20.753906 12 C 20.753906 12 16.21875 12 16.21875 12 C 16.21875 9.671875 14.328125 7.78125 12 7.78125 C 9.671875 7.78125 7.78125 9.671875 7.78125 12 Z M 7.78125 12 "/>
</g>
</svg>
